<svg width="32" height="32" viewBox="0 0 32 32" fill="none" xmlns="http://www.w3.org/2000/svg">
  <defs>
    <linearGradient id="main" x1="4" y1="4" x2="28" y2="28" gradientUnits="userSpaceOnUse">
      <stop stop-color="#f43f5e"/>
      <stop offset="0.5" stop-color="#d946ef"/>
      <stop offset="1" stop-color="#06b6d4"/>
    </linearGradient>
    <linearGradient id="shine" x1="8" y1="4" x2="24" y2="20" gradientUnits="userSpaceOnUse">
      <stop stop-color="#ffffff" stop-opacity="0.6"/>
      <stop offset="0.5" stop-color="#ffffff" stop-opacity="0.1"/>
      <stop offset="1" stop-color="#ffffff" stop-opacity="0"/>
    </linearGradient>
    <linearGradient id="rift" x1="16" y1="2" x2="16" y2="30" gradientUnits="userSpaceOnUse">
      <stop stop-color="#06b6d4"/>
      <stop offset="0.5" stop-color="#d946ef"/>
      <stop offset="1" stop-color="#f43f5e"/>
    </linearGradient>
  </defs>
  <path d="M6 4h11c4 0 7 2.5 7 6.5 0 3-1.8 5-4.5 5.8L26 25h-6l-5.5-8H10v8H6V4z" fill="url(#main)"/>
  <path d="M10 8v5h5c2 0 3-1 3-2.5S17 8 15 8h-5z" fill="url(#main)"/>
  <path d="M6 4h11c4 0 7 2.5 7 6.5 0 3-1.8 5-4.5 5.8L26 25h-6l-5.5-8H10v8H6V4z" fill="url(#shine)"/>
  <path d="M15.5 1L17.5 31" stroke="url(#rift)" stroke-width="2" stroke-linecap="round" stroke-opacity="0.9"/>
</svg>
